<svg xmlns="http://www.w3.org/2000/svg" viewBox="0 0 1024 500" width="1024" height="500">
  <defs>
    <linearGradient id="bg" x1="0" y1="0" x2="1" y2="0">
      <stop offset="0%" stop-color="#00897b"/>
      <stop offset="100%" stop-color="#004d40"/>
    </linearGradient>
  </defs>

  <!-- Background -->
  <rect width="1024" height="500" fill="url(#bg)"/>

  <!-- Waveform decoration — white bars, low opacity, bottom of canvas -->
  <g opacity="0.12" fill="white">
    <!-- 96 bars, 6px wide, ~4.7px gap, spanning full width -->
    <rect x="0"    y="440" width="6" height="60"/>
    <rect x="11"   y="425" width="6" height="75"/>
    <rect x="22"   y="410" width="6" height="90"/>
    <rect x="33"   y="420" width="6" height="80"/>
    <rect x="44"   y="405" width="6" height="95"/>
    <rect x="55"   y="390" width="6" height="110"/>
    <rect x="66"   y="370" width="6" height="130"/>
    <rect x="77"   y="350" width="6" height="150"/>
    <rect x="88"   y="365" width="6" height="135"/>
    <rect x="99"   y="380" width="6" height="120"/>
    <rect x="110"  y="395" width="6" height="105"/>
    <rect x="121"  y="355" width="6" height="145"/>
    <rect x="132"  y="340" width="6" height="160"/>
    <rect x="143"  y="360" width="6" height="140"/>
    <rect x="154"  y="375" width="6" height="125"/>
    <rect x="165"  y="390" width="6" height="110"/>
    <rect x="176"  y="410" width="6" height="90"/>
    <rect x="187"  y="425" width="6" height="75"/>
    <rect x="198"  y="435" width="6" height="65"/>
    <rect x="209"  y="415" width="6" height="85"/>
    <rect x="220"  y="400" width="6" height="100"/>
    <rect x="231"  y="380" width="6" height="120"/>
    <rect x="242"  y="360" width="6" height="140"/>
    <rect x="253"  y="340" width="6" height="160"/>
    <rect x="264"  y="320" width="6" height="180"/>
    <rect x="275"  y="300" width="6" height="200"/>
    <rect x="286"  y="320" width="6" height="180"/>
    <rect x="297"  y="340" width="6" height="160"/>
    <rect x="308"  y="360" width="6" height="140"/>
    <rect x="319"  y="380" width="6" height="120"/>
    <rect x="330"  y="400" width="6" height="100"/>
    <rect x="341"  y="415" width="6" height="85"/>
    <rect x="352"  y="430" width="6" height="70"/>
    <rect x="363"  y="415" width="6" height="85"/>
    <rect x="374"  y="395" width="6" height="105"/>
    <rect x="385"  y="370" width="6" height="130"/>
    <rect x="396"  y="345" width="6" height="155"/>
    <rect x="407"  y="320" width="6" height="180"/>
    <rect x="418"  y="295" width="6" height="205"/>
    <rect x="429"  y="270" width="6" height="230"/>
    <rect x="440"  y="250" width="6" height="250"/>
    <rect x="451"  y="265" width="6" height="235"/>
    <rect x="462"  y="285" width="6" height="215"/>
    <rect x="473"  y="305" width="6" height="195"/>
    <rect x="484"  y="325" width="6" height="175"/>
    <rect x="495"  y="310" width="6" height="190"/>
    <rect x="506"  y="290" width="6" height="210"/>
    <rect x="517"  y="270" width="6" height="230"/>
    <rect x="528"  y="250" width="6" height="250"/>
    <rect x="539"  y="275" width="6" height="225"/>
    <rect x="550"  y="295" width="6" height="205"/>
    <rect x="561"  y="315" width="6" height="185"/>
    <rect x="572"  y="335" width="6" height="165"/>
    <rect x="583"  y="350" width="6" height="150"/>
    <rect x="594"  y="370" width="6" height="130"/>
    <rect x="605"  y="390" width="6" height="110"/>
    <rect x="616"  y="410" width="6" height="90"/>
    <rect x="627"  y="425" width="6" height="75"/>
    <rect x="638"  y="410" width="6" height="90"/>
    <rect x="649"  y="390" width="6" height="110"/>
    <rect x="660"  y="370" width="6" height="130"/>
    <rect x="671"  y="350" width="6" height="150"/>
    <rect x="682"  y="330" width="6" height="170"/>
    <rect x="693"  y="345" width="6" height="155"/>
    <rect x="704"  y="365" width="6" height="135"/>
    <rect x="715"  y="385" width="6" height="115"/>
    <rect x="726"  y="405" width="6" height="95"/>
    <rect x="737"  y="420" width="6" height="80"/>
    <rect x="748"  y="435" width="6" height="65"/>
    <rect x="759"  y="420" width="6" height="80"/>
    <rect x="770"  y="405" width="6" height="95"/>
    <rect x="781"  y="390" width="6" height="110"/>
    <rect x="792"  y="375" width="6" height="125"/>
    <rect x="803"  y="395" width="6" height="105"/>
    <rect x="814"  y="415" width="6" height="85"/>
    <rect x="825"  y="430" width="6" height="70"/>
    <rect x="836"  y="418" width="6" height="82"/>
    <rect x="847"  y="405" width="6" height="95"/>
    <rect x="858"  y="420" width="6" height="80"/>
    <rect x="869"  y="435" width="6" height="65"/>
    <rect x="880"  y="445" width="6" height="55"/>
    <rect x="891"  y="430" width="6" height="70"/>
    <rect x="902"  y="440" width="6" height="60"/>
    <rect x="913"  y="450" width="6" height="50"/>
    <rect x="924"  y="445" width="6" height="55"/>
    <rect x="935"  y="455" width="6" height="45"/>
    <rect x="946"  y="460" width="6" height="40"/>
    <rect x="957"  y="455" width="6" height="45"/>
    <rect x="968"  y="462" width="6" height="38"/>
    <rect x="979"  y="465" width="6" height="35"/>
    <rect x="990"  y="468" width="6" height="32"/>
    <rect x="1001" y="470" width="6" height="30"/>
    <rect x="1012" y="472" width="6" height="28"/>
  </g>

  <!-- ── Microphone (left side, white) ────────────────────────────────────── -->

  <!-- Capsule body -->
  <rect x="130" y="100" width="90" height="145" rx="45" fill="white"/>

  <!-- Stand arc -->
  <path d="M 106 210 C 106 330 244 330 244 210"
        stroke="white" stroke-width="16" fill="none"
        stroke-linecap="round" stroke-linejoin="round"/>

  <!-- Stand vertical -->
  <line x1="175" y1="298" x2="175" y2="345"
        stroke="white" stroke-width="16" stroke-linecap="round"/>

  <!-- Stand base -->
  <line x1="128" y1="345" x2="222" y2="345"
        stroke="white" stroke-width="16" stroke-linecap="round"/>

  <!-- ── Text (right of mic) ───────────────────────────────────────────────── -->

  <!-- App name -->
  <text x="300" y="205"
        font-family="system-ui, -apple-system, Helvetica, Arial, sans-serif"
        font-size="82" font-weight="700" fill="white" letter-spacing="-1">
    Röstinspelning
  </text>

  <!-- Tagline -->
  <text x="302" y="260"
        font-family="system-ui, -apple-system, Helvetica, Arial, sans-serif"
        font-size="30" font-weight="400" fill="white" opacity="0.72">
    för folkmusiker
  </text>

  <!-- Subtle separator line -->
  <line x1="300" y1="285" x2="760" y2="285"
        stroke="white" stroke-width="1" opacity="0.25"/>

  <!-- Feature description -->
  <text x="302" y="320"
        font-family="system-ui, -apple-system, Helvetica, Arial, sans-serif"
        font-size="20" font-weight="400" fill="white" opacity="0.55">
    Spela in · Anteckna · Organisera
  </text>
</svg>
